<svg width="134" height="119" viewBox="0 0 134 119" fill="none" xmlns="http://www.w3.org/2000/svg">
<ellipse cx="66.8531" cy="78.6799" rx="64.6412" ry="38.1737" fill="#F5BC26"/>
<path d="M66.7908 33.7302C84.9415 33.7302 101.305 38.5141 113.085 46.1696C124.879 53.8345 131.916 64.2481 131.916 75.529C131.916 86.81 124.879 97.2236 113.085 104.888C101.305 112.544 84.9415 117.328 66.7908 117.328C48.6401 117.328 32.2767 112.544 20.4968 104.888C8.70282 97.2236 1.66577 86.81 1.66577 75.529C1.66577 64.2481 8.70282 53.8345 20.4968 46.1696C32.2767 38.5141 48.6401 33.7302 66.7908 33.7302Z" stroke="black" stroke-width="3"/>
<path d="M66.7908 27.0396C84.7482 27.0396 100.86 31.3328 112.38 38.1177C123.968 44.9429 130.416 53.9388 130.416 63.2788C130.416 72.619 123.968 81.6156 112.38 88.4409C100.86 95.2258 84.7482 99.519 66.7908 99.519C48.8334 99.519 32.7219 95.2258 21.2019 88.4409C9.61335 81.6156 3.16577 72.619 3.16577 63.2788C3.16599 53.9388 9.61356 44.9429 21.2019 38.1177C32.7219 31.3328 48.8334 27.0396 66.7908 27.0396Z" stroke="black" stroke-width="6"/>
<ellipse cx="66.893" cy="63.1055" rx="64.0581" ry="36.5665" fill="#FAC760"/>
<path d="M67.1372 36.8344C80.9324 36.8344 93.2746 40.0573 102.064 45.1128C110.934 50.2149 115.646 56.8115 115.646 63.4614C115.646 70.1113 110.934 76.7079 102.064 81.81C93.2746 86.8655 80.9324 90.0883 67.1372 90.0883C53.3421 90.0883 40.9998 86.8655 32.2104 81.81C23.3401 76.7079 18.6284 70.1113 18.6284 63.4614C18.6284 56.8115 23.3401 50.2149 32.2104 45.1128C40.9998 40.0573 53.3421 36.8344 67.1372 36.8344Z" fill="#F7D993" stroke="black" stroke-width="6"/>
<ellipse cx="66.8531" cy="54.9504" rx="64.6412" ry="38.1737" fill="#F5BC26"/>
<path d="M66.7908 10.0007C84.9415 10.0007 101.305 14.7845 113.085 22.4401C124.879 30.105 131.916 40.5185 131.916 51.7995C131.916 63.0805 124.879 73.494 113.085 81.1589C101.305 88.8145 84.9415 93.5983 66.7908 93.5983C48.6401 93.5983 32.2767 88.8145 20.4968 81.1589C8.70282 73.494 1.66577 63.0805 1.66577 51.7995C1.66577 40.5185 8.70282 30.105 20.4968 22.4401C32.2767 14.7845 48.6401 10.0007 66.7908 10.0007Z" stroke="black" stroke-width="3"/>
<path d="M66.7908 3.31003C84.7482 3.31003 100.86 7.60328 112.38 14.3882C123.968 21.2134 130.416 30.2093 130.416 39.5493C130.416 48.8894 123.968 57.8861 112.38 64.7114C100.86 71.4963 84.7482 75.7895 66.7908 75.7895C48.8334 75.7895 32.7219 71.4963 21.2019 64.7114C9.61335 57.8861 3.16577 48.8894 3.16577 39.5493C3.16599 30.2093 9.61356 21.2134 21.2019 14.3882C32.7219 7.60328 48.8334 3.31003 66.7908 3.31003Z" stroke="black" stroke-width="6"/>
<ellipse cx="66.893" cy="39.3759" rx="64.0581" ry="36.5665" fill="#FAC760"/>
<path d="M67.1372 11.6049C81.1467 11.6049 93.7567 14.874 102.812 20.0825C111.908 25.3143 117.146 32.3163 117.146 39.7319C117.146 47.1474 111.908 54.1495 102.812 59.3813C93.7567 64.5897 81.1467 67.8588 67.1372 67.8588C53.1278 67.8588 40.5177 64.5897 31.4624 59.3813C22.3666 54.1495 17.1284 47.1474 17.1284 39.7319C17.1284 32.3163 22.3666 25.3143 31.4624 20.0825C40.5177 14.874 53.1278 11.6049 67.1372 11.6049Z" fill="#F7D993" stroke="black" stroke-width="3"/>
</svg>
