<svg width="134" height="96" viewBox="0 0 134 96" fill="none" xmlns="http://www.w3.org/2000/svg">
<ellipse cx="67.0902" cy="55.5689" rx="64.6412" ry="38.1737" fill="#F5BC26"/>
<path d="M67.0278 10.6192C85.1785 10.6192 101.542 15.4031 113.322 23.0587C125.116 30.7235 132.153 41.1371 132.153 52.4181C132.153 63.699 125.116 74.1126 113.322 81.7774C101.542 89.433 85.1785 94.2169 67.0278 94.2169C48.8771 94.2169 32.5137 89.433 20.7339 81.7774C8.93988 74.1126 1.90284 63.699 1.90283 52.4181C1.90283 41.1371 8.93988 30.7235 20.7339 23.0587C32.5137 15.4031 48.8771 10.6192 67.0278 10.6192Z" stroke="black" stroke-width="3"/>
<path d="M67.0278 3.92859C84.9852 3.92859 101.097 8.22184 112.617 15.0067C124.205 21.8319 130.653 30.8279 130.653 40.1678C130.653 49.508 124.205 58.5046 112.617 65.33C101.097 72.1148 84.9852 76.4081 67.0278 76.4081C49.0704 76.4081 32.959 72.1148 21.439 65.33C9.85042 58.5046 3.40283 49.508 3.40283 40.1678C3.40305 30.8279 9.85062 21.8319 21.439 15.0067C32.959 8.22184 49.0704 3.92859 67.0278 3.92859Z" stroke="black" stroke-width="6"/>
<ellipse cx="67.13" cy="39.9945" rx="64.0581" ry="36.5665" fill="#FAC760"/>
<path d="M67.3743 12.2235C81.3837 12.2235 93.9937 15.4926 103.049 20.701C112.145 25.9328 117.383 32.9349 117.383 40.3504C117.383 47.766 112.145 54.7681 103.049 59.9998C93.9937 65.2083 81.3837 68.4774 67.3743 68.4774C53.3648 68.4774 40.7548 65.2083 31.6995 59.9998C22.6037 54.7681 17.3655 47.766 17.3655 40.3504C17.3655 32.9349 22.6037 25.9328 31.6995 20.701C40.7548 15.4926 53.3648 12.2235 67.3743 12.2235Z" fill="#F7D993" stroke="black" stroke-width="3"/>
</svg>
