<svg width="1440" height="1024" viewBox="0 0 1440 1024" fill="none" xmlns="http://www.w3.org/2000/svg">
<path d="M321.505 558.489V604.085L823.237 892.427L1120.12 717.237V669.728L823.237 846.397L321.505 558.489Z" fill="black" stroke="black"/>
<path d="M320.916 465.774V511.371L822.648 799.713L1119.53 624.523V577.013L822.648 753.682L320.916 465.774Z" fill="black" stroke="black"/>
<path d="M321.505 362.218V407.814L823.237 696.156L1120.12 520.966V473.457L823.237 650.126L321.505 362.218Z" fill="black" stroke="black"/>
<path d="M780.691 536.042L349.5 288.612C336.315 281.046 319.879 290.565 319.879 305.766C319.879 312.846 323.663 319.386 329.802 322.914L780.849 582.128C806.043 596.607 837.074 596.428 862.1 581.661L1108.47 436.281C1114.68 432.613 1118.5 425.935 1118.5 418.718C1118.5 402.901 1101.27 393.105 1087.68 401.194L862.153 535.397C837.106 550.302 805.971 550.548 780.691 536.042Z" fill="black" stroke="black"/>
<path d="M657.683 188.453L1088.99 435.949C1102.35 443.615 1119.06 434.273 1119.52 418.877C1119.75 411.343 1115.81 404.298 1109.26 400.556L657.474 142.22C632.304 127.828 601.347 128.039 576.376 142.775L329.908 288.214C323.693 291.882 319.879 298.56 319.879 305.777C319.879 321.594 337.106 331.39 350.699 323.301L576.222 189.098C601.268 174.193 632.404 173.947 657.683 188.453Z" fill="black" stroke="black"/>
<path d="M715.767 284.03C749.992 284.98 780.259 291.587 802.902 303.842C825.967 316.325 841.284 334.792 844.421 359.093C846.754 377.179 837.821 394.006 822.613 407.589C807.395 421.18 785.592 431.838 761.197 437.793C712.47 449.687 652.304 443.036 612.186 401.919C599.827 389.252 594.428 375.677 595.025 362.263C595.621 348.912 602.134 336.192 612.669 325.119C633.695 303.021 671.313 286.801 713.868 283.995L713.879 283.994V283.995L713.992 283.989H714.134L715.767 284.03ZM764.766 327.219C742.395 321.261 716.513 319.799 700.797 321.005L700.784 321.006L700.772 321.008L700.749 321.011C681.413 322.824 659.958 330.32 646.589 341.044C639.908 346.403 634.901 352.85 633.589 360.123C632.244 367.585 634.911 375.194 642.052 382.43C652.815 393.334 668.868 400.044 686.489 403.48C704.158 406.926 723.719 407.148 741.849 404.816C759.952 402.487 776.857 397.581 789.131 390.614C801.248 383.736 809.784 374.248 808.845 362.557C808.085 353.111 802.399 345.694 794.422 340.017C786.466 334.355 775.947 330.197 764.766 327.219Z" fill="black"/>
<path d="M573.059 314.123L511.552 274.638L470.547 299.618L538.486 340.312L573.059 314.123Z" fill="black" stroke="black"/>
<path d="M647.136 265.334L585.629 225.848L544.624 250.829L612.563 291.523L647.136 265.334Z" fill="black" stroke="black"/>
<path d="M882.069 484.885L820.562 445.4L779.557 470.381L847.496 511.075L882.069 484.885Z" fill="black" stroke="black"/>
<path d="M956.145 437.157L894.638 397.671L853.633 422.652L921.572 463.346L956.145 437.157Z" fill="black" stroke="black"/>
</svg>
